<svg width="570" height="380" viewBox="0 0 570 380" fill="none" xmlns="http://www.w3.org/2000/svg">
<path d="M582.04 228.79L576.616 225.385C558.22 207.008 532.592 198.99 498.315 201.012C469.781 202.751 447.166 214.068 429.868 224.604C429.868 224.356 429.868 224.108 429.868 223.824C429.868 214.884 430.896 205.199 431.888 195.762C432.916 186.183 433.909 176.463 433.909 167.239C433.909 158.015 432.845 148.933 429.62 141.306C428.804 139.319 427.032 138.184 424.728 138.184C415.476 138.397 397.505 144.712 393.145 148.543L390.77 153.758C390.593 163.94 388.395 192.498 386.127 195.939C386.198 195.833 384.886 199.416 384.886 199.416C381.023 240.178 380.952 275.974 384.532 306.732C384.922 309.818 390.841 314.43 395.414 316.098C400.412 317.943 416.079 313.756 425.118 310.315C425.012 310.315 428.556 309.783 428.556 309.783C431.427 309.464 433.093 307.051 432.952 303.787C432.952 303.752 433.164 294.954 433.164 294.954C439.722 268.418 466.13 236.737 497.358 231.983C515.01 229.181 528.941 233.686 539.965 245.748C541.453 247.912 544.679 266.999 533.017 288.958C524.368 305.207 506.999 318.9 484.243 327.45C462.656 335.645 438.907 338.98 409.592 337.951C408.387 337.171 382.121 319.397 382.121 319.397C358.904 303.078 330.015 282.715 303.785 272.781C299.212 271.043 290.953 264.16 285.99 260.081L283.297 257.846C268.196 245.748 239.449 226.555 216.374 211.159C216.374 211.159 205.952 204.17 203.932 202.822C203.932 201.935 204.003 200.197 204.003 200.197C204.641 199.452 219.138 190.76 219.138 190.76C239.449 178.875 248.843 173.057 250.828 170.006C250.402 170.503 253.557 168.41 253.557 168.41C253.699 168.339 303.891 139.922 303.891 139.922C352.205 113.315 406.934 83.1955 435.716 53.3954C435.752 53.3954 437.099 48.8544 437.099 48.8544L437.737 44.7746C439.616 38.4244 439.757 33.5286 438.162 27.8524C437.737 26.2205 436.248 24.3403 434.263 23.9855C411.826 21.786 382.866 35.2315 356.494 59.9585C350.539 65.5638 345.541 68.2954 340.259 71.169L336.218 73.404C307.152 89.936 241.682 130.592 207.406 152.552C209.639 115.656 216.48 63.2223 224.845 19.4445L223.924 14.2295C223.817 14.0521 220.379 7.63089 220.379 7.63089L217.685 2.87706L216.905 2.6642C210.064 -0.81248 204.499 0.642051 200.387 1.67087L193.511 4.18969L184.401 7.48899C182.593 7.84375 181.282 8.94352 180.573 10.7173C164.232 50.3089 150.585 115.444 147.359 167.523C114.642 146.663 84.4063 131.727 69.5896 124.49L69.1288 124.277L67.3565 123.887C62.0395 123.213 55.5528 119.275 49.2434 115.479C48.6053 115.089 36.8371 107.426 36.8371 107.426L17.8023 95.2575C17.9796 95.3639 12.8044 94.1222 12.8044 94.1222C4.61623 95.5058 -11.0511 106.078 -15.6946 113.244C-16.3326 114.202 -16.5453 115.231 -16.5453 116.295C-16.5453 117.785 -16.0845 119.346 -15.6946 120.8L-14.8439 124.703L-13.9577 127.009C-4.84799 136.375 18.1213 151.949 40.6653 164.082L66.7894 177.953L106.773 199.806C106.773 199.984 113.65 205.199 113.65 205.199L118.364 207.93C118.364 207.93 118.86 208.25 119.179 208.463C108.51 215.593 46.4785 257.101 46.4785 257.101L8.19632 282.466C4.58078 284.95 -10.5194 291.726 -13.816 293.038C-22.1459 296.408 -28.3845 301.623 -31.0075 307.264L-32 309.464L-30.9721 310.918L-28.0654 313.153L-24.1309 315.708L-19.9127 318.617L-15.9427 319.22C-9.2079 319.503 0.752556 315.637 19.362 307.513C36.4472 299.921 82.9175 271.894 102.768 259.903L111.239 254.795C114.748 255.078 118.612 252.134 122.015 249.509C126.02 246.316 134.705 241.03 139.986 238.688C140.128 238.617 143.177 236.95 145.977 235.389C145.977 236.276 145.941 237.66 145.941 237.66C146.828 298.466 150.337 342.67 156.965 376.727L157.107 377.33L157.745 378.678C161.042 383.503 164.763 397.906 168.025 410.642L175.575 436.008C175.716 436.292 177.737 438.385 177.737 438.385C182.061 441.294 195.212 446.367 204.003 445.338L206.2 445.09L207.583 442.003C208.327 438.207 208.611 434.482 208.611 430.367C208.611 425.72 208.256 420.611 207.831 414.367L207.228 405.214C204.464 362.785 201.663 301.446 201.663 260.684C201.663 259.548 201.663 258.52 201.663 257.455C208.859 261.996 240.406 281.863 240.406 281.863C294.037 316.701 375.067 369.312 424.019 383.219C426.571 384 429.23 383.396 431.108 381.587C431.179 381.516 438.659 376.762 438.659 376.762L440.041 376.195C442.877 374.847 444.755 370.093 445.074 364.949C486.334 362.856 543.935 346.962 574.702 308.187C586.648 293.18 592 274.768 592 259.016C592 246.138 588.42 234.963 581.933 228.861L582.04 228.79Z" fill="#FFDC00"/>
</svg>
