<svg width="20" height="20" viewBox="0 0 20 20" fill="none" xmlns="http://www.w3.org/2000/svg">
<path d="M5.625 2.5V4.375M14.375 2.5V4.375M2.5 15.625V6.25C2.5 5.75272 2.69754 5.27581 3.04917 4.92417C3.40081 4.57254 3.87772 4.375 4.375 4.375H15.625C16.1223 4.375 16.5992 4.57254 16.9508 4.92417C17.3025 5.27581 17.5 5.75272 17.5 6.25V15.625M2.5 15.625C2.5 16.1223 2.69754 16.5992 3.04917 16.9508C3.40081 17.3025 3.87772 17.5 4.375 17.5H15.625C16.1223 17.5 16.5992 17.3025 16.9508 16.9508C17.3025 16.5992 17.5 16.1223 17.5 15.625M2.5 15.625V9.375C2.5 8.87772 2.69754 8.40081 3.04917 8.04917C3.40081 7.69754 3.87772 7.5 4.375 7.5H15.625C16.1223 7.5 16.5992 7.69754 16.9508 8.04917C17.3025 8.40081 17.5 8.87772 17.5 9.375V15.625" stroke="black" stroke-linecap="round" stroke-linejoin="round"/>
<path d="M8.65234 10.2868V15.0003H7.66927V11.2178H7.64323L6.5625 11.8949V11.029L7.72786 10.2868H8.65234Z" fill="black"/>
<path d="M9.61276 15.0003L9.60625 14.2907L11.299 12.7347C11.7384 12.3148 11.976 12.0544 11.976 11.68C11.976 11.2601 11.6603 10.9997 11.2273 11.0029C10.7846 10.9997 10.4949 11.2796 10.4982 11.7321H9.56719C9.56393 10.8109 10.2475 10.2217 11.2404 10.2217C12.2495 10.2217 12.9201 10.7979 12.9201 11.6149C12.9201 12.152 12.6596 12.5915 11.6896 13.4704L10.9734 14.167V14.193H12.9852V15.0003H9.61276Z" fill="black"/>
</svg>
